<svg width="640" height="180" viewBox="0 0 640 180" fill="none" xmlns="http://www.w3.org/2000/svg" role="img" aria-labelledby="title desc">
  <title id="title">Sheshi logo</title>
  <desc id="desc">Sheshi wordmark with a red civic discussion symbol.</desc>
  <defs>
    <linearGradient id="logo-bg" x1="26" y1="22" x2="128" y2="142" gradientUnits="userSpaceOnUse">
      <stop stop-color="#ff5961"/>
      <stop offset="0.56" stop-color="#ef4d55"/>
      <stop offset="1" stop-color="#bd2e35"/>
    </linearGradient>
    <filter id="logo-shadow" x="18" y="21" width="124" height="123" filterUnits="userSpaceOnUse" color-interpolation-filters="sRGB">
      <feDropShadow dx="0" dy="12" stdDeviation="10" flood-color="#350508" flood-opacity="0.24"/>
    </filter>
  </defs>
  <rect x="28" y="24" width="112" height="112" rx="27" fill="url(#logo-bg)" filter="url(#logo-shadow)"/>
  <path d="M28 103C51 115 96 116 140 96V109C140 123.912 127.912 136 113 136H55C40.0883 136 28 123.912 28 109V103Z" fill="#9f252d" opacity="0.34"/>
  <path fill-rule="evenodd" clip-rule="evenodd" d="M50 51C50 43.82 55.82 38 63 38H110C117.18 38 123 43.82 123 51V87C123 94.18 117.18 100 110 100H84.4L63.2 118.05C61.895 119.16 59.9 118.232 59.9 116.519V100H63C55.82 100 50 94.18 50 87V51Z" fill="#fff8f7"/>
  <rect x="73" y="54" width="6.5" height="34" rx="3.25" transform="rotate(8 73 54)" fill="#ef4d55"/>
  <rect x="96" y="54" width="6.5" height="34" rx="3.25" transform="rotate(8 96 54)" fill="#ef4d55"/>
  <rect x="67" y="64" width="43" height="6.5" rx="3.25" fill="#ef4d55"/>
  <rect x="64" y="80" width="43" height="6.5" rx="3.25" fill="#ef4d55"/>
  <text x="168" y="83" fill="#17171b" font-family="Inter, ui-sans-serif, system-ui, -apple-system, BlinkMacSystemFont, Segoe UI, sans-serif" font-size="56" font-weight="900" letter-spacing="0">SHESHI</text>
  <text x="171" y="119" fill="#73737d" font-family="Inter, ui-sans-serif, system-ui, -apple-system, BlinkMacSystemFont, Segoe UI, sans-serif" font-size="18" font-weight="850" letter-spacing="9">ZERI QYTETAR LIVE</text>
</svg>
